<svg id="visual" viewBox="0 0 900 600" width="900" height="600" xmlns="http://www.w3.org/2000/svg" xmlns:xlink="http://www.w3.org/1999/xlink" version="1.1"><rect x="0" y="0" width="900" height="600" fill="#090909"></rect><path d="M0 243L21.5 244.8C43 246.7 86 250.3 128.8 252.5C171.7 254.7 214.3 255.3 257.2 263.8C300 272.3 343 288.7 385.8 286.8C428.7 285 471.3 265 514.2 240.7C557 216.3 600 187.7 642.8 176.7C685.7 165.7 728.3 172.3 771.2 181.5C814 190.7 857 202.3 878.5 208.2L900 214L900 601L878.5 601C857 601 814 601 771.2 601C728.3 601 685.7 601 642.8 601C600 601 557 601 514.2 601C471.3 601 428.7 601 385.8 601C343 601 300 601 257.2 601C214.3 601 171.7 601 128.8 601C86 601 43 601 21.5 601L0 601Z" fill="#172538"></path><path d="M0 275L21.5 277C43 279 86 283 128.8 282.5C171.7 282 214.3 277 257.2 273.7C300 270.3 343 268.7 385.8 271.5C428.7 274.3 471.3 281.7 514.2 284.7C557 287.7 600 286.3 642.8 272.5C685.7 258.7 728.3 232.3 771.2 224.8C814 217.3 857 228.7 878.5 234.3L900 240L900 601L878.5 601C857 601 814 601 771.2 601C728.3 601 685.7 601 642.8 601C600 601 557 601 514.2 601C471.3 601 428.7 601 385.8 601C343 601 300 601 257.2 601C214.3 601 171.7 601 128.8 601C86 601 43 601 21.5 601L0 601Z" fill="#082b52"></path><path d="M0 332L21.5 325C43 318 86 304 128.8 311.5C171.7 319 214.3 348 257.2 359C300 370 343 363 385.8 355.5C428.7 348 471.3 340 514.2 337.2C557 334.3 600 336.7 642.8 329.3C685.7 322 728.3 305 771.2 294.3C814 283.7 857 279.3 878.5 277.2L900 275L900 601L878.5 601C857 601 814 601 771.2 601C728.3 601 685.7 601 642.8 601C600 601 557 601 514.2 601C471.3 601 428.7 601 385.8 601C343 601 300 601 257.2 601C214.3 601 171.7 601 128.8 601C86 601 43 601 21.5 601L0 601Z" fill="#002f6c"></path><path d="M0 405L21.5 391.7C43 378.3 86 351.7 128.8 342.8C171.7 334 214.3 343 257.2 357C300 371 343 390 385.8 388.7C428.7 387.3 471.3 365.7 514.2 355.3C557 345 600 346 642.8 353.2C685.7 360.3 728.3 373.7 771.2 379.7C814 385.7 857 384.3 878.5 383.7L900 383L900 601L878.5 601C857 601 814 601 771.2 601C728.3 601 685.7 601 642.8 601C600 601 557 601 514.2 601C471.3 601 428.7 601 385.8 601C343 601 300 601 257.2 601C214.3 601 171.7 601 128.8 601C86 601 43 601 21.5 601L0 601Z" fill="#003185"></path><path d="M0 414L21.5 412.3C43 410.7 86 407.3 128.8 410.8C171.7 414.3 214.3 424.7 257.2 425.8C300 427 343 419 385.8 422.5C428.7 426 471.3 441 514.2 446.2C557 451.3 600 446.7 642.8 441.3C685.7 436 728.3 430 771.2 422.5C814 415 857 406 878.5 401.5L900 397L900 601L878.5 601C857 601 814 601 771.2 601C728.3 601 685.7 601 642.8 601C600 601 557 601 514.2 601C471.3 601 428.7 601 385.8 601C343 601 300 601 257.2 601C214.3 601 171.7 601 128.8 601C86 601 43 601 21.5 601L0 601Z" fill="#00309c"></path><path d="M0 475L21.5 475.3C43 475.7 86 476.3 128.8 472.7C171.7 469 214.3 461 257.2 457.5C300 454 343 455 385.8 460.2C428.7 465.3 471.3 474.7 514.2 474.3C557 474 600 464 642.8 463.3C685.7 462.7 728.3 471.3 771.2 471.2C814 471 857 462 878.5 457.5L900 453L900 601L878.5 601C857 601 814 601 771.2 601C728.3 601 685.7 601 642.8 601C600 601 557 601 514.2 601C471.3 601 428.7 601 385.8 601C343 601 300 601 257.2 601C214.3 601 171.7 601 128.8 601C86 601 43 601 21.5 601L0 601Z" fill="#162db3"></path><path d="M0 508L21.5 510.7C43 513.3 86 518.7 128.8 518.2C171.7 517.7 214.3 511.3 257.2 509C300 506.7 343 508.3 385.8 515.5C428.7 522.7 471.3 535.3 514.2 540.8C557 546.3 600 544.7 642.8 539.7C685.7 534.7 728.3 526.3 771.2 522.3C814 518.3 857 518.7 878.5 518.8L900 519L900 601L878.5 601C857 601 814 601 771.2 601C728.3 601 685.7 601 642.8 601C600 601 557 601 514.2 601C471.3 601 428.7 601 385.8 601C343 601 300 601 257.2 601C214.3 601 171.7 601 128.8 601C86 601 43 601 21.5 601L0 601Z" fill="#3324c7"></path></svg>