<svg id="visual" viewBox="0 0 900 600" width="900" height="600" xmlns="http://www.w3.org/2000/svg" xmlns:xlink="http://www.w3.org/1999/xlink" version="1.1"><rect width="900" height="600" fill="#000627"></rect><g><g transform="translate(164 119)"><path d="M106.7 -86.6C130.9 -54.8 138 -10.8 126.2 23.8C114.3 58.4 83.4 83.7 46.9 103.7C10.5 123.7 -31.6 138.3 -69.2 126.7C-106.8 115.1 -140 77.3 -152.5 32.1C-165.1 -13.2 -156.9 -65.9 -128.1 -98.9C-99.2 -131.8 -49.6 -144.9 -4.2 -141.6C41.3 -138.2 82.5 -118.5 106.7 -86.6Z" fill="#0fb8f7"></path></g><g transform="translate(651 145)"><path d="M48.8 -39.6C61.5 -23 68.8 -2.8 65.5 16.2C62.1 35.2 48.1 53 29.9 61.6C11.7 70.1 -10.8 69.5 -30.2 60.9C-49.7 52.2 -66.2 35.5 -69.5 17C-72.7 -1.5 -62.8 -21.8 -49 -38.6C-35.2 -55.4 -17.6 -68.6 0.2 -68.8C18.1 -69 36.1 -56.1 48.8 -39.6Z" fill="#0fb8f7"></path></g><g transform="translate(753 592)"><path d="M76.8 -65.1C95.9 -37.4 105.1 -5.7 98.6 22.4C92.1 50.4 69.9 74.8 40.9 91.2C11.8 107.6 -24.1 116.1 -53.8 104.5C-83.4 92.9 -106.9 61.3 -114.4 26.6C-121.9 -8.1 -113.5 -46 -91.8 -74.3C-70.1 -102.6 -35.1 -121.4 -3.1 -118.9C28.9 -116.5 57.8 -92.8 76.8 -65.1Z" fill="#0fb8f7"></path></g><g transform="translate(59 551)"><path d="M83.5 -65.1C106 -38.3 120.6 -3.7 112.9 24C105.1 51.6 75 72.4 43 87C10.9 101.6 -23 109.9 -55.1 100C-87.2 90.1 -117.5 61.9 -125 28.7C-132.5 -4.6 -117.2 -42.9 -92.6 -70.2C-67.9 -97.4 -34 -113.6 -1.7 -112.2C30.5 -110.8 61 -91.9 83.5 -65.1Z" fill="#0fb8f7"></path></g></g></svg>