<svg id="visual" viewBox="0 0 450 900" width="450" height="900" xmlns="http://www.w3.org/2000/svg" xmlns:xlink="http://www.w3.org/1999/xlink" version="1.1"><rect x="0" y="0" width="450" height="900" fill="#001220"></rect><path d="M0 854L6.3 853.2C12.7 852.3 25.3 850.7 37.8 847.8C50.3 845 62.7 841 75.2 837.5C87.7 834 100.3 831 112.8 832.3C125.3 833.7 137.7 839.3 150.2 839.8C162.7 840.3 175.3 835.7 187.8 833C200.3 830.3 212.7 829.7 225.2 833.8C237.7 838 250.3 847 262.8 848.2C275.3 849.3 287.7 842.7 300.2 839.5C312.7 836.3 325.3 836.7 337.8 838.8C350.3 841 362.7 845 375.2 846.2C387.7 847.3 400.3 845.7 412.8 843.8C425.3 842 437.7 840 443.8 839L450 838L450 901L443.8 901C437.7 901 425.3 901 412.8 901C400.3 901 387.7 901 375.2 901C362.7 901 350.3 901 337.8 901C325.3 901 312.7 901 300.2 901C287.7 901 275.3 901 262.8 901C250.3 901 237.7 901 225.2 901C212.7 901 200.3 901 187.8 901C175.3 901 162.7 901 150.2 901C137.7 901 125.3 901 112.8 901C100.3 901 87.7 901 75.2 901C62.7 901 50.3 901 37.8 901C25.3 901 12.7 901 6.3 901L0 901Z" fill="#fa7268"></path><path d="M0 855L6.3 855.7C12.7 856.3 25.3 857.7 37.8 859.7C50.3 861.7 62.7 864.3 75.2 864.7C87.7 865 100.3 863 112.8 861C125.3 859 137.7 857 150.2 856.8C162.7 856.7 175.3 858.3 187.8 860C200.3 861.7 212.7 863.3 225.2 861C237.7 858.7 250.3 852.3 262.8 849.8C275.3 847.3 287.7 848.7 300.2 851.3C312.7 854 325.3 858 337.8 860.5C350.3 863 362.7 864 375.2 862.5C387.7 861 400.3 857 412.8 855.5C425.3 854 437.7 855 443.8 855.5L450 856L450 901L443.8 901C437.7 901 425.3 901 412.8 901C400.3 901 387.7 901 375.2 901C362.7 901 350.3 901 337.8 901C325.3 901 312.7 901 300.2 901C287.7 901 275.3 901 262.8 901C250.3 901 237.7 901 225.2 901C212.7 901 200.3 901 187.8 901C175.3 901 162.7 901 150.2 901C137.7 901 125.3 901 112.8 901C100.3 901 87.7 901 75.2 901C62.7 901 50.3 901 37.8 901C25.3 901 12.7 901 6.3 901L0 901Z" fill="#eb5967"></path><path d="M0 876L6.3 875C12.7 874 25.3 872 37.8 871.8C50.3 871.7 62.7 873.3 75.2 873.3C87.7 873.3 100.3 871.7 112.8 869.5C125.3 867.3 137.7 864.7 150.2 863C162.7 861.3 175.3 860.7 187.8 859.8C200.3 859 212.7 858 225.2 861C237.7 864 250.3 871 262.8 872.7C275.3 874.3 287.7 870.7 300.2 867.7C312.7 864.7 325.3 862.3 337.8 861.5C350.3 860.7 362.7 861.3 375.2 864.5C387.7 867.7 400.3 873.3 412.8 875C425.3 876.7 437.7 874.3 443.8 873.2L450 872L450 901L443.8 901C437.7 901 425.3 901 412.8 901C400.3 901 387.7 901 375.2 901C362.7 901 350.3 901 337.8 901C325.3 901 312.7 901 300.2 901C287.7 901 275.3 901 262.8 901C250.3 901 237.7 901 225.2 901C212.7 901 200.3 901 187.8 901C175.3 901 162.7 901 150.2 901C137.7 901 125.3 901 112.8 901C100.3 901 87.7 901 75.2 901C62.7 901 50.3 901 37.8 901C25.3 901 12.7 901 6.3 901L0 901Z" fill="#da3f67"></path><path d="M0 879L6.3 878.7C12.7 878.3 25.3 877.7 37.8 879.5C50.3 881.3 62.7 885.7 75.2 887.3C87.7 889 100.3 888 112.8 885.3C125.3 882.7 137.7 878.3 150.2 876.3C162.7 874.3 175.3 874.7 187.8 874.8C200.3 875 212.7 875 225.2 875.3C237.7 875.7 250.3 876.3 262.8 877.8C275.3 879.3 287.7 881.7 300.2 882.5C312.7 883.3 325.3 882.7 337.8 881.5C350.3 880.3 362.7 878.7 375.2 879.5C387.7 880.3 400.3 883.7 412.8 882.8C425.3 882 437.7 877 443.8 874.5L450 872L450 901L443.8 901C437.7 901 425.3 901 412.8 901C400.3 901 387.7 901 375.2 901C362.7 901 350.3 901 337.8 901C325.3 901 312.7 901 300.2 901C287.7 901 275.3 901 262.8 901C250.3 901 237.7 901 225.2 901C212.7 901 200.3 901 187.8 901C175.3 901 162.7 901 150.2 901C137.7 901 125.3 901 112.8 901C100.3 901 87.7 901 75.2 901C62.7 901 50.3 901 37.8 901C25.3 901 12.7 901 6.3 901L0 901Z" fill="#c62368"></path></svg>