<svg id="visual" viewBox="0 0 900 600" width="900" height="600" xmlns="http://www.w3.org/2000/svg" xmlns:xlink="http://www.w3.org/1999/xlink" version="1.1"><rect x="0" y="0" width="900" height="600" fill="#001220"></rect><path d="M0 433L21.5 423C43 413 86 393 128.8 390C171.7 387 214.3 401 257.2 412.3C300 423.7 343 432.3 385.8 424.8C428.7 417.3 471.3 393.7 514.2 380.7C557 367.7 600 365.3 642.8 376.5C685.7 387.7 728.3 412.3 771.2 412.2C814 412 857 387 878.5 374.5L900 362L900 601L878.5 601C857 601 814 601 771.2 601C728.3 601 685.7 601 642.8 601C600 601 557 601 514.2 601C471.3 601 428.7 601 385.8 601C343 601 300 601 257.2 601C214.3 601 171.7 601 128.8 601C86 601 43 601 21.5 601L0 601Z" fill="#fa7268"></path><path d="M0 398L21.5 410.8C43 423.7 86 449.3 128.8 448.5C171.7 447.7 214.3 420.3 257.2 411.8C300 403.3 343 413.7 385.8 418.3C428.7 423 471.3 422 514.2 422.8C557 423.7 600 426.3 642.8 426.8C685.7 427.3 728.3 425.7 771.2 429.5C814 433.3 857 442.7 878.5 447.3L900 452L900 601L878.5 601C857 601 814 601 771.2 601C728.3 601 685.7 601 642.8 601C600 601 557 601 514.2 601C471.3 601 428.7 601 385.8 601C343 601 300 601 257.2 601C214.3 601 171.7 601 128.8 601C86 601 43 601 21.5 601L0 601Z" fill="#ef5f67"></path><path d="M0 505L21.5 500.7C43 496.3 86 487.7 128.8 485.5C171.7 483.3 214.3 487.7 257.2 493C300 498.3 343 504.7 385.8 505.2C428.7 505.7 471.3 500.3 514.2 494C557 487.7 600 480.3 642.8 482.8C685.7 485.3 728.3 497.7 771.2 495.2C814 492.7 857 475.3 878.5 466.7L900 458L900 601L878.5 601C857 601 814 601 771.2 601C728.3 601 685.7 601 642.8 601C600 601 557 601 514.2 601C471.3 601 428.7 601 385.8 601C343 601 300 601 257.2 601C214.3 601 171.7 601 128.8 601C86 601 43 601 21.5 601L0 601Z" fill="#e34c67"></path><path d="M0 501L21.5 500.5C43 500 86 499 128.8 499.8C171.7 500.7 214.3 503.3 257.2 503.8C300 504.3 343 502.7 385.8 499.3C428.7 496 471.3 491 514.2 489C557 487 600 488 642.8 492C685.7 496 728.3 503 771.2 511.2C814 519.3 857 528.7 878.5 533.3L900 538L900 601L878.5 601C857 601 814 601 771.2 601C728.3 601 685.7 601 642.8 601C600 601 557 601 514.2 601C471.3 601 428.7 601 385.8 601C343 601 300 601 257.2 601C214.3 601 171.7 601 128.8 601C86 601 43 601 21.5 601L0 601Z" fill="#d53867"></path><path d="M0 566L21.5 566.3C43 566.7 86 567.3 128.8 563C171.7 558.7 214.3 549.3 257.2 545.2C300 541 343 542 385.8 540.8C428.7 539.7 471.3 536.3 514.2 538.5C557 540.7 600 548.3 642.8 552C685.7 555.7 728.3 555.3 771.2 554.5C814 553.7 857 552.3 878.5 551.7L900 551L900 601L878.5 601C857 601 814 601 771.2 601C728.3 601 685.7 601 642.8 601C600 601 557 601 514.2 601C471.3 601 428.7 601 385.8 601C343 601 300 601 257.2 601C214.3 601 171.7 601 128.8 601C86 601 43 601 21.5 601L0 601Z" fill="#c62368"></path></svg>