<svg id="visual" viewBox="0 0 900 600" width="900" height="600" xmlns="http://www.w3.org/2000/svg" xmlns:xlink="http://www.w3.org/1999/xlink" version="1.1"><rect x="0" y="0" width="900" height="600" fill="#000c16"></rect><path d="M0 426L21.5 427.3C43 428.7 86 431.3 128.8 429.8C171.7 428.3 214.3 422.7 257.2 411.8C300 401 343 385 385.8 379.3C428.7 373.7 471.3 378.3 514.2 380.8C557 383.3 600 383.7 642.8 385.5C685.7 387.3 728.3 390.7 771.2 397.2C814 403.7 857 413.3 878.5 418.2L900 423L900 601L878.5 601C857 601 814 601 771.2 601C728.3 601 685.7 601 642.8 601C600 601 557 601 514.2 601C471.3 601 428.7 601 385.8 601C343 601 300 601 257.2 601C214.3 601 171.7 601 128.8 601C86 601 43 601 21.5 601L0 601Z" fill="#69cefa"></path><path d="M0 455L21.5 453C43 451 86 447 128.8 438C171.7 429 214.3 415 257.2 409.5C300 404 343 407 385.8 406.2C428.7 405.3 471.3 400.7 514.2 410C557 419.3 600 442.7 642.8 445.3C685.7 448 728.3 430 771.2 420.3C814 410.7 857 409.3 878.5 408.7L900 408L900 601L878.5 601C857 601 814 601 771.2 601C728.3 601 685.7 601 642.8 601C600 601 557 601 514.2 601C471.3 601 428.7 601 385.8 601C343 601 300 601 257.2 601C214.3 601 171.7 601 128.8 601C86 601 43 601 21.5 601L0 601Z" fill="#22adf9"></path><path d="M0 457L21.5 461.3C43 465.7 86 474.3 128.8 476.5C171.7 478.7 214.3 474.3 257.2 470.7C300 467 343 464 385.8 467.7C428.7 471.3 471.3 481.7 514.2 489C557 496.3 600 500.7 642.8 501.5C685.7 502.3 728.3 499.7 771.2 489C814 478.3 857 459.7 878.5 450.3L900 441L900 601L878.5 601C857 601 814 601 771.2 601C728.3 601 685.7 601 642.8 601C600 601 557 601 514.2 601C471.3 601 428.7 601 385.8 601C343 601 300 601 257.2 601C214.3 601 171.7 601 128.8 601C86 601 43 601 21.5 601L0 601Z" fill="#0089f1"></path><path d="M0 498L21.5 495.3C43 492.7 86 487.3 128.8 489.8C171.7 492.3 214.3 502.7 257.2 502.5C300 502.3 343 491.7 385.8 490.8C428.7 490 471.3 499 514.2 506.7C557 514.3 600 520.7 642.8 521.2C685.7 521.7 728.3 516.3 771.2 512.2C814 508 857 505 878.5 503.5L900 502L900 601L878.5 601C857 601 814 601 771.2 601C728.3 601 685.7 601 642.8 601C600 601 557 601 514.2 601C471.3 601 428.7 601 385.8 601C343 601 300 601 257.2 601C214.3 601 171.7 601 128.8 601C86 601 43 601 21.5 601L0 601Z" fill="#0061e1"></path><path d="M0 565L21.5 559.8C43 554.7 86 544.3 128.8 539.7C171.7 535 214.3 536 257.2 538.5C300 541 343 545 385.8 546.8C428.7 548.7 471.3 548.3 514.2 548.3C557 548.3 600 548.7 642.8 551.3C685.7 554 728.3 559 771.2 560.7C814 562.3 857 560.7 878.5 559.8L900 559L900 601L878.5 601C857 601 814 601 771.2 601C728.3 601 685.7 601 642.8 601C600 601 557 601 514.2 601C471.3 601 428.7 601 385.8 601C343 601 300 601 257.2 601C214.3 601 171.7 601 128.8 601C86 601 43 601 21.5 601L0 601Z" fill="#2433c7"></path></svg>