<svg id="visual" viewBox="0 0 900 600" width="900" height="600" xmlns="http://www.w3.org/2000/svg" xmlns:xlink="http://www.w3.org/1999/xlink" version="1.1"><rect x="0" y="0" width="900" height="600" fill="#040933"></rect><defs><linearGradient id="grad1_0" x1="33.3%" y1="100%" x2="100%" y2="0%"><stop offset="20%" stop-color="#44a299" stop-opacity="1"></stop><stop offset="80%" stop-color="#44a299" stop-opacity="1"></stop></linearGradient></defs><defs><linearGradient id="grad1_1" x1="33.3%" y1="100%" x2="100%" y2="0%"><stop offset="20%" stop-color="#44a299" stop-opacity="1"></stop><stop offset="80%" stop-color="#007b8a" stop-opacity="1"></stop></linearGradient></defs><defs><linearGradient id="grad1_2" x1="33.3%" y1="100%" x2="100%" y2="0%"><stop offset="20%" stop-color="#005575" stop-opacity="1"></stop><stop offset="80%" stop-color="#007b8a" stop-opacity="1"></stop></linearGradient></defs><defs><linearGradient id="grad1_3" x1="33.3%" y1="100%" x2="100%" y2="0%"><stop offset="20%" stop-color="#005575" stop-opacity="1"></stop><stop offset="80%" stop-color="#003058" stop-opacity="1"></stop></linearGradient></defs><defs><linearGradient id="grad1_4" x1="33.3%" y1="100%" x2="100%" y2="0%"><stop offset="20%" stop-color="#040933" stop-opacity="1"></stop><stop offset="80%" stop-color="#003058" stop-opacity="1"></stop></linearGradient></defs><defs><linearGradient id="grad2_0" x1="0%" y1="100%" x2="66.7%" y2="0%"><stop offset="20%" stop-color="#44a299" stop-opacity="1"></stop><stop offset="80%" stop-color="#44a299" stop-opacity="1"></stop></linearGradient></defs><defs><linearGradient id="grad2_1" x1="0%" y1="100%" x2="66.7%" y2="0%"><stop offset="20%" stop-color="#007b8a" stop-opacity="1"></stop><stop offset="80%" stop-color="#44a299" stop-opacity="1"></stop></linearGradient></defs><defs><linearGradient id="grad2_2" x1="0%" y1="100%" x2="66.7%" y2="0%"><stop offset="20%" stop-color="#007b8a" stop-opacity="1"></stop><stop offset="80%" stop-color="#005575" stop-opacity="1"></stop></linearGradient></defs><defs><linearGradient id="grad2_3" x1="0%" y1="100%" x2="66.7%" y2="0%"><stop offset="20%" stop-color="#003058" stop-opacity="1"></stop><stop offset="80%" stop-color="#005575" stop-opacity="1"></stop></linearGradient></defs><defs><linearGradient id="grad2_4" x1="0%" y1="100%" x2="66.7%" y2="0%"><stop offset="20%" stop-color="#003058" stop-opacity="1"></stop><stop offset="80%" stop-color="#040933" stop-opacity="1"></stop></linearGradient></defs><g transform="translate(900, 600)"><path d="M-378.6 0C-366.9 -65.7 -355.2 -131.5 -323 -186.5C-290.9 -241.5 -238.2 -285.9 -181 -313.5C-123.8 -341.1 -61.9 -352.1 0 -363L0 0Z" fill="#001e46"></path><path d="M-302.9 0C-293.5 -52.6 -284.1 -105.2 -258.4 -149.2C-232.7 -193.2 -190.6 -228.7 -144.8 -250.8C-99 -272.9 -49.5 -281.7 0 -290.4L0 0Z" fill="#004268"></path><path d="M-227.1 0C-220.1 -39.4 -213.1 -78.9 -193.8 -111.9C-174.5 -144.9 -142.9 -171.5 -108.6 -188.1C-74.3 -204.7 -37.1 -211.2 0 -217.8L0 0Z" fill="#006881"></path><path d="M-151.4 0C-146.8 -26.3 -142.1 -52.6 -129.2 -74.6C-116.3 -96.6 -95.3 -114.3 -72.4 -125.4C-49.5 -136.5 -24.8 -140.8 0 -145.2L0 0Z" fill="#1f8f92"></path><path d="M-75.7 0C-73.4 -13.1 -71 -26.3 -64.6 -37.3C-58.2 -48.3 -47.6 -57.2 -36.2 -62.7C-24.8 -68.2 -12.4 -70.4 0 -72.6L0 0Z" fill="#44a299"></path></g><g transform="translate(0, 0)"><path d="M374 0C358 61.7 342.1 123.4 312.6 180.5C283.2 237.6 240.3 289.9 186 322.2C131.7 354.4 65.8 366.5 0 378.6L0 0Z" fill="#001e46"></path><path d="M299.2 0C286.4 49.4 273.6 98.8 250.1 144.4C226.6 190 192.3 231.9 148.8 257.7C105.3 283.5 52.7 293.2 0 302.9L0 0Z" fill="#004268"></path><path d="M224.4 0C214.8 37 205.2 74.1 187.6 108.3C169.9 142.5 144.2 174 111.6 193.3C79 212.6 39.5 219.9 0 227.1L0 0Z" fill="#006881"></path><path d="M149.6 0C143.2 24.7 136.8 49.4 125.1 72.2C113.3 95 96.1 116 74.4 128.9C52.7 141.8 26.3 146.6 0 151.4L0 0Z" fill="#1f8f92"></path><path d="M74.8 0C71.6 12.3 68.4 24.7 62.5 36.1C56.6 47.5 48.1 58 37.2 64.4C26.3 70.9 13.2 73.3 0 75.7L0 0Z" fill="#44a299"></path></g></svg>