<svg id="visual" viewBox="0 0 900 600" width="900" height="600" xmlns="http://www.w3.org/2000/svg" xmlns:xlink="http://www.w3.org/1999/xlink" version="1.1"><rect x="0" y="0" width="900" height="600" fill="#001122"></rect><path d="M0 363L129 363L129 368L257 368L257 357L386 357L386 301L514 301L514 340L643 340L643 353L771 353L771 298L900 298L900 348L900 601L900 601L771 601L771 601L643 601L643 601L514 601L514 601L386 601L386 601L257 601L257 601L129 601L129 601L0 601Z" fill="#fa7268"></path><path d="M0 440L129 440L129 365L257 365L257 354L386 354L386 389L514 389L514 405L643 405L643 436L771 436L771 420L900 420L900 416L900 601L900 601L771 601L771 601L643 601L643 601L514 601L514 601L386 601L386 601L257 601L257 601L129 601L129 601L0 601Z" fill="#e34c67"></path><path d="M0 545L129 545L129 525L257 525L257 503L386 503L386 456L514 456L514 487L643 487L643 466L771 466L771 534L900 534L900 456L900 601L900 601L771 601L771 601L643 601L643 601L514 601L514 601L386 601L386 601L257 601L257 601L129 601L129 601L0 601Z" fill="#c62368"></path></svg>