<svg id="visual" viewBox="0 0 900 600" width="900" height="600" xmlns="http://www.w3.org/2000/svg" xmlns:xlink="http://www.w3.org/1999/xlink" version="1.1"><rect x="0" y="0" width="900" height="600" fill="#001122"></rect><defs><linearGradient id="grad1_0" x1="33.3%" y1="100%" x2="100%" y2="0%"><stop offset="20%" stop-color="#001122" stop-opacity="1"></stop><stop offset="80%" stop-color="#001122" stop-opacity="1"></stop></linearGradient></defs><defs><linearGradient id="grad2_0" x1="0%" y1="100%" x2="66.7%" y2="0%"><stop offset="20%" stop-color="#001122" stop-opacity="1"></stop><stop offset="80%" stop-color="#001122" stop-opacity="1"></stop></linearGradient></defs><g transform="translate(900, 600)"><path d="M-216.3 0C-209.3 -26.5 -202.3 -52.9 -193.1 -80C-183.9 -107 -172.6 -134.6 -153 -153C-133.3 -171.3 -105.3 -180.4 -78.5 -189.4C-51.6 -198.4 -25.8 -207.4 0 -216.3L0 0Z" fill="#FF6F61"></path></g><g transform="translate(0, 0)"><path d="M216.3 0C213.5 28.6 210.7 57.2 199.9 82.8C189.1 108.4 170.3 130.9 149.2 149.2C128.1 167.5 104.8 181.7 79.6 192.2C54.4 202.7 27.2 209.5 0 216.3L0 0Z" fill="#FF6F61"></path></g></svg>